Sword of the Stranger (2007) [BDRip720p][Nautilus-BT]
Join www.nautilus-bt.org

[img]http://img824.imageshack.us/img824/5951/swordbd.jpg[/img]

Link IMDb : http://www.imdb.com/title/tt1121794/

A swordsman from a strange land is caught in a struggle between morality, righteousness, and devotion as he reluctantly agrees to take a raggedy boy and his dog to a remote, Buddhist temple.


Titolo italiano : Sword of the Stranger
Titolo originale : Sword of the Stranger
Anno : 2007
Genere : Avventura
Paese : Jap
Sceneggiatura : Fumihito Takayama
Regia : Masahiro Andō
Musiche : Naoki Satō


Lingue : Italiano - Giapponese
Sottotitoli : Italiano
Cartelli : Italiano
Capitoli : si


General
Complete name                    : Sword of the Stranger (2007) [BDRip720p Ita-Jap] by Pitt@Sk8.mkv
Format                           : Matroska
File size                        : 4.38 GiB
Duration                         : 1h 43mn
Overall bit rate                 : 6 084 Kbps
Encoded date                     : UTC 2011-01-01 13:59:48
Writing application              : mkvmerge v4.0.0 ('The Stars were mine') built on Jun  6 2010 16:18:42
Writing library                  : libebml v1.0.0 + libmatroska v1.0.0

Video
ID                               : 1
Format                           : AVC
Format/Info                      : Advanced Video Codec
Format profile                   : High@L4.1
Format settings, CABAC           : Yes
Format settings, ReFrames        : 3 frames
Format settings, GOP             : M=4, N=32
Muxing mode                      : Container profile=Unknown@4.1
Codec ID                         : V_MPEG4/ISO/AVC
Duration                         : 1h 43mn
Bit rate mode                    : Variable
Bit rate                         : 3 288 Kbps
Maximum bit rate                 : 45.0 Mbps
Width                            : 1 280 pixels
Height                           : 720 pixels
Display aspect ratio             : 16:9
Frame rate                       : 23.976 fps
Color space                      : YUV
Chroma subsampling               : 4:2:0
Bit depth                        : 8 bits
Scan type                        : Progressive
Bits/(Pixel*Frame)               : 0.149
Stream size                      : 2.28 GiB (52%)
Title                            : BDRip720p by Pitt@Sk8
Writing library                  : x264 core 104 r1713 c276662
Encoding settings                : cabac=1 / ref=3 / deblock=1:0:0 / analyse=0x3:0x133 / me=hex / subme=7 / psy=1 / psy_rd=1.00:0.00 / mixed_ref=1 / me_range=16 / chroma_me=1 / trellis=1 / 8x8dct=1 / cqm=0 / deadzone=21,11 / fast_pskip=1 / chroma_qp_offset=-2 / threads=6 / sliced_threads=0 / slices=4 / nr=0 / decimate=1 / interlaced=0 / constrained_intra=0 / bframes=3 / b_pyramid=1 / b_adapt=1 / b_bias=0 / direct=1 / weightb=1 / open_gop=2 / weightp=2 / keyint=240 / keyint_min=23 / scenecut=40 / intra_refresh=0 / rc_lookahead=40 / rc=2pass / mbtree=1 / bitrate=3288 / ratetol=1.0 / qcomp=0.60 / qpmin=10 / qpmax=51 / qpstep=4 / cplxblur=20.0 / qblur=0.5 / vbv_maxrate=45000 / vbv_bufsize=45000 / ip_ratio=1.40 / aq=1:1.00 / nal_hrd=vbr

Audio #1
ID                               : 2
Format                           : AC-3
Format/Info                      : Audio Coding 3
Mode extension                   : CM (complete main)
Codec ID                         : A_AC3
Duration                         : 1h 43mn
Bit rate mode                    : Constant
Bit rate                         : 640 Kbps
Channel(s)                       : 6 channels
Channel positions                : Front: L C R, Side: L R, LFE
Sampling rate                    : 48.0 KHz
Bit depth                        : 16 bits
Stream size                      : 472 MiB (11%)
Title                            : Italiano AC3 5.1 640 kbps - Pitt@Sk8
Language                         : Italian

Audio #2
ID                               : 3
Format                           : DTS
Format/Info                      : Digital Theater Systems
Codec ID                         : A_DTS
Duration                         : 1h 43mn
Bit rate mode                    : Constant
Bit rate                         : 755 Kbps
Channel(s)                       : 6 channels
Channel positions                : Front: L C R, Side: L R, LFE
Sampling rate                    : 48.0 KHz
Bit depth                        : 24 bits
Stream size                      : 556 MiB (12%)
Title                            : Italiano DTS 5.1 755 kbps - Pitt@Sk8
Language                         : Italian

Audio #3
ID                               : 4
Format                           : AC-3
Format/Info                      : Audio Coding 3
Mode extension                   : CM (complete main)
Codec ID                         : A_AC3
Duration                         : 1h 43mn
Bit rate mode                    : Constant
Bit rate                         : 640 Kbps
Channel(s)                       : 6 channels
Channel positions                : Front: L C R, Side: L R, LFE
Sampling rate                    : 48.0 KHz
Bit depth                        : 16 bits
Stream size                      : 472 MiB (11%)
Title                            : Giapponese AC3 5.1 640 kbps - Pitt@Sk8
Language                         : Japanese

Audio #4
ID                               : 5
Format                           : DTS
Format/Info                      : Digital Theater Systems
Codec ID                         : A_DTS
Duration                         : 1h 43mn
Bit rate mode                    : Constant
Bit rate                         : 755 Kbps
Channel(s)                       : 6 channels
Channel positions                : Front: L C R, Side: L R, LFE
Sampling rate                    : 48.0 KHz
Bit depth                        : 24 bits
Stream size                      : 556 MiB (12%)
Title                            : Giapponese DTS 5.1 755 kbps - Pitt@Sk8
Language                         : Japanese

Text #1
ID                               : 6
Format                           : VobSub
Codec ID                         : S_VOBSUB
Codec ID/Info                    : The same subtitle format used on DVDs
Title                            : Cartelli - Italiano
Language                         : Italian

Text #2
ID                               : 7
Format                           : VobSub
Codec ID                         : S_VOBSUB
Codec ID/Info                    : The same subtitle format used on DVDs
Title                            : Sottotitoli - Italiano
Language                         : Italian

Menu
00:00:00.000                     : en:Capitolo 01 - Pitt@Sk8
00:01:32.926                     : en:Capitolo 02 - Pitt@Sk8
00:06:25.802                     : en:Capitolo 03 - Pitt@Sk8
00:11:58.092                     : en:Capitolo 04 - Pitt@Sk8
00:17:17.912                     : en:Capitolo 05 - Pitt@Sk8
00:23:14.184                     : en:Capitolo 06 - Pitt@Sk8
00:28:18.864                     : en:Capitolo 07 - Pitt@Sk8
00:35:20.535                     : en:Capitolo 08 - Pitt@Sk8
00:41:37.829                     : en:Capitolo 09 - Pitt@Sk8
00:47:35.686                     : en:Capitolo 10 - Pitt@Sk8
00:54:36.440                     : en:Capitolo 11 - Pitt@Sk8
01:01:13.837                     : en:Capitolo 12 - Pitt@Sk8
01:08:13.548                     : en:Capitolo 13 - Pitt@Sk8
01:12:50.241                     : en:Capitolo 14 - Pitt@Sk8
01:19:42.569                     : en:Capitolo 15 - Pitt@Sk8
01:25:07.477                     : en:Capitolo 16 - Pitt@Sk8
01:29:35.245                     : en:Capitolo 17 - Pitt@Sk8
01:35:19.505                     : en:Capitolo 18 - Pitt@Sk8
01:37:40.188                     : en:Capitolo 19 - Pitt@Sk8
01:42:34.482                     : en:Capitolo 20 - Pitt@Sk8


[img]http://img404.imageshack.us/img404/9327/swordofthestranger2007b.jpg[/img]

[img]http://img832.imageshack.us/img832/9327/swordofthestranger2007b.jpg[/img]

[img]http://img222.imageshack.us/img222/9327/swordofthestranger2007b.jpg[/img]

[img]http://img413.imageshack.us/img413/9327/swordofthestranger2007b.jpg[/img]

[img]http://img841.imageshack.us/img841/9327/swordofthestranger2007b.jpg[/img]

[img]http://img232.imageshack.us/img232/9327/swordofthestranger2007b.jpg[/img]

Join www.nautilus-bt.org
